<svg width="238" height="58" viewBox="0 0 238 58" fill="none" xmlns="http://www.w3.org/2000/svg">
<path d="M83.2586 14.56V28.364C83.2586 31.1973 82.4426 33.4073 80.8106 34.994C79.1786 36.558 76.8666 37.34 73.8746 37.34C71.6759 37.34 69.9079 36.9547 68.5706 36.184C67.2333 35.3907 66.3153 34.3027 65.8166 32.92C65.3179 31.5147 65.2159 29.9167 65.5106 28.126L71.2226 27.106C70.9506 29.1687 71.0413 30.6307 71.4946 31.492C71.9706 32.3307 72.8319 32.75 74.0786 32.75C75.3026 32.75 76.1639 32.342 76.6626 31.526C77.1613 30.71 77.4106 29.452 77.4106 27.752V14.56H83.2586ZM94.7246 19.66C96.5152 19.66 98.0792 20.0113 99.4166 20.714C100.777 21.394 101.831 22.4027 102.579 23.74C103.349 25.0547 103.735 26.6413 103.735 28.5C103.735 30.3587 103.349 31.9567 102.579 33.294C101.831 34.6087 100.777 35.6173 99.4166 36.32C98.0792 37 96.5152 37.34 94.7246 37.34C92.9792 37.34 91.4266 37 90.0666 36.32C88.7066 35.6173 87.6412 34.6087 86.8706 33.294C86.1226 31.9567 85.7486 30.3587 85.7486 28.5C85.7486 26.6413 86.1226 25.0547 86.8706 23.74C87.6412 22.4027 88.7066 21.394 90.0666 20.714C91.4266 20.0113 92.9792 19.66 94.7246 19.66ZM94.7246 23.774C94.0672 23.774 93.5006 23.9327 93.0246 24.25C92.5486 24.5673 92.1859 25.0773 91.9366 25.78C91.6872 26.4827 91.5626 27.3893 91.5626 28.5C91.5626 29.6107 91.6872 30.5173 91.9366 31.22C92.1859 31.9 92.5486 32.41 93.0246 32.75C93.5006 33.0673 94.0672 33.226 94.7246 33.226C95.4046 33.226 95.9826 33.0673 96.4586 32.75C96.9346 32.41 97.2972 31.9 97.5466 31.22C97.7959 30.5173 97.9206 29.6107 97.9206 28.5C97.9206 27.3893 97.7959 26.4827 97.5466 25.78C97.2972 25.0773 96.9346 24.5673 96.4586 24.25C95.9826 23.9327 95.4046 23.774 94.7246 23.774ZM117.22 37.34C116.109 37.34 115.123 37.0907 114.262 36.592C113.423 36.0933 112.732 35.4133 112.188 34.552C111.644 33.668 111.293 32.6707 111.134 31.56L111.678 30.846L111.372 37H106.306V12.792H112.086V25.338L111.542 24.522C111.859 23.1167 112.505 21.9607 113.48 21.054C114.455 20.1247 115.769 19.66 117.424 19.66C118.739 19.66 119.906 20.0113 120.926 20.714C121.969 21.4167 122.773 22.4367 123.34 23.774C123.929 25.0887 124.224 26.6867 124.224 28.568C124.224 30.404 123.929 31.9793 123.34 33.294C122.751 34.6087 121.935 35.6173 120.892 36.32C119.849 37 118.625 37.34 117.22 37.34ZM115.214 33.09C116.211 33.09 116.993 32.7273 117.56 32.002C118.127 31.254 118.41 30.0867 118.41 28.5C118.41 26.9133 118.127 25.7573 117.56 25.032C116.993 24.284 116.211 23.91 115.214 23.91C114.557 23.91 113.99 24.1027 113.514 24.488C113.061 24.8507 112.709 25.372 112.46 26.052C112.211 26.732 112.086 27.5593 112.086 28.534C112.086 29.5087 112.211 30.336 112.46 31.016C112.709 31.696 113.072 32.2173 113.548 32.58C114.024 32.92 114.579 33.09 115.214 33.09ZM147.515 14.56V37H141.667V14.56H147.515ZM133.099 14.56V37H127.251V14.56H133.099ZM144.795 23.434V27.956H130.107V23.434H144.795ZM157.044 37.34C155.888 37.34 154.868 37.1473 153.984 36.762C153.122 36.354 152.442 35.708 151.944 34.824C151.445 33.94 151.196 32.784 151.196 31.356V20H156.976V29.996C156.976 31.084 157.191 31.8433 157.622 32.274C158.052 32.7047 158.664 32.92 159.458 32.92C159.866 32.92 160.251 32.852 160.614 32.716C160.976 32.5573 161.294 32.3307 161.566 32.036C161.838 31.7187 162.042 31.322 162.178 30.846C162.336 30.3473 162.416 29.7693 162.416 29.112V20H168.196V37H163.028L162.858 33.804C162.314 35.0053 161.554 35.9007 160.58 36.49C159.605 37.0567 158.426 37.34 157.044 37.34ZM171.668 37V20H176.836L177.142 25.848L176.496 25.202C176.723 23.978 177.12 22.958 177.686 22.142C178.276 21.326 179.001 20.714 179.862 20.306C180.746 19.8753 181.732 19.66 182.82 19.66C183.999 19.66 185.019 19.8867 185.88 20.34C186.764 20.7933 187.456 21.462 187.954 22.346C188.453 23.23 188.702 24.3407 188.702 25.678V37H182.922V27.208C182.922 26.0293 182.696 25.2133 182.242 24.76C181.789 24.3067 181.211 24.08 180.508 24.08C179.964 24.08 179.454 24.216 178.978 24.488C178.502 24.7373 178.128 25.1453 177.856 25.712C177.584 26.2787 177.448 27.038 177.448 27.99V37H171.668ZM199.079 14.594V30.948C199.079 31.764 199.271 32.3533 199.657 32.716C200.065 33.056 200.62 33.226 201.323 33.226C201.867 33.226 202.331 33.1693 202.717 33.056C203.125 32.92 203.487 32.7273 203.805 32.478L204.417 36.048C203.85 36.456 203.136 36.7733 202.275 37C201.413 37.2267 200.529 37.34 199.623 37.34C198.331 37.34 197.209 37.1587 196.257 36.796C195.327 36.4333 194.602 35.8553 194.081 35.062C193.582 34.2687 193.321 33.2147 193.299 31.9V16.192L199.079 14.594ZM204.145 20V24.114H190.375V20H204.145ZM214.431 37.34C212.549 37.34 210.917 36.9887 209.535 36.286C208.175 35.5833 207.121 34.5747 206.373 33.26C205.625 31.9453 205.251 30.3587 205.251 28.5C205.251 26.6413 205.625 25.0547 206.373 23.74C207.121 22.4253 208.163 21.4167 209.501 20.714C210.861 20.0113 212.413 19.66 214.159 19.66C215.949 19.66 217.468 20.0113 218.715 20.714C219.984 21.394 220.947 22.346 221.605 23.57C222.262 24.7713 222.591 26.154 222.591 27.718C222.591 28.126 222.579 28.534 222.557 28.942C222.534 29.35 222.5 29.69 222.455 29.962H208.991V26.868H219.905L217.151 27.922C217.151 26.562 216.901 25.5193 216.403 24.794C215.927 24.0687 215.179 23.706 214.159 23.706C213.433 23.706 212.81 23.876 212.289 24.216C211.79 24.556 211.405 25.0887 211.133 25.814C210.883 26.5393 210.759 27.4687 210.759 28.602C210.759 29.7127 210.906 30.6193 211.201 31.322C211.495 32.002 211.915 32.5007 212.459 32.818C213.003 33.1127 213.66 33.26 214.431 33.26C215.292 33.26 215.972 33.09 216.471 32.75C216.992 32.41 217.377 31.934 217.627 31.322L222.251 32.852C221.933 33.8267 221.378 34.654 220.585 35.334C219.814 35.9913 218.885 36.49 217.797 36.83C216.731 37.17 215.609 37.34 214.431 37.34ZM225.144 37V20H230.244L230.482 23.672C230.913 22.4027 231.547 21.4167 232.386 20.714C233.247 20.0113 234.335 19.66 235.65 19.66C236.081 19.66 236.443 19.694 236.738 19.762C237.055 19.83 237.305 19.9207 237.486 20.034L236.908 24.794C236.681 24.7033 236.387 24.6353 236.024 24.59C235.684 24.522 235.265 24.488 234.766 24.488C234.086 24.488 233.451 24.6353 232.862 24.93C232.273 25.2247 231.797 25.6667 231.434 26.256C231.094 26.8227 230.924 27.548 230.924 28.432V37H225.144Z" fill="#73DC7E"/>
<g filter="url(#filter0_d_1_9)">
<rect x="4" width="50" height="50" rx="5" fill="#73DC7E"/>
<rect x="4.5" y="0.5" width="49" height="49" rx="4.5" stroke="#73DC7E"/>
</g>
<path d="M25.152 14.56V28.364C25.152 31.1973 24.336 33.4073 22.704 34.994C21.072 36.558 18.76 37.34 15.768 37.34C13.5694 37.34 11.8014 36.9547 10.464 36.184C9.12669 35.3907 8.20869 34.3027 7.71002 32.92C7.21136 31.5147 7.10936 29.9167 7.40402 28.126L13.116 27.106C12.844 29.1687 12.9347 30.6307 13.388 31.492C13.864 32.3307 14.7254 32.75 15.972 32.75C17.196 32.75 18.0574 32.342 18.556 31.526C19.0547 30.71 19.304 29.452 19.304 27.752V14.56H25.152ZM49.2976 14.56V37H43.4496V14.56H49.2976ZM34.8816 14.56V37H29.0336V14.56H34.8816ZM46.5776 23.434V27.956H31.8896V23.434H46.5776Z" fill="white"/>
<defs>
<filter id="filter0_d_1_9" x="0" y="0" width="58" height="58" filterUnits="userSpaceOnUse" color-interpolation-filters="sRGB">
<feFlood flood-opacity="0" result="BackgroundImageFix"/>
<feColorMatrix in="SourceAlpha" type="matrix" values="0 0 0 0 0 0 0 0 0 0 0 0 0 0 0 0 0 0 127 0" result="hardAlpha"/>
<feOffset dy="4"/>
<feGaussianBlur stdDeviation="2"/>
<feComposite in2="hardAlpha" operator="out"/>
<feColorMatrix type="matrix" values="0 0 0 0 0 0 0 0 0 0 0 0 0 0 0 0 0 0 0.25 0"/>
<feBlend mode="normal" in2="BackgroundImageFix" result="effect1_dropShadow_1_9"/>
<feBlend mode="normal" in="SourceGraphic" in2="effect1_dropShadow_1_9" result="shape"/>
</filter>
</defs>
</svg>
